<mxfile host="app.diagrams.net" modified="2020-12-04T14:28:45.999Z" agent="5.0 (Windows NT 10.0; Win64; x64) AppleWebKit/537.36 (KHTML, like Gecko) Chrome/87.0.4280.67 Safari/537.36 Edg/87.0.664.52" etag="aLB8KM7bAYvtDhxOAcdT" version="13.10.9" type="github">
  <diagram id="fSqTsCMtqkVXj3NiWCgs" name="Page-1">
    <mxGraphModel dx="868" dy="488" grid="1" gridSize="10" guides="1" tooltips="1" connect="1" arrows="1" fold="1" page="1" pageScale="1" pageWidth="850" pageHeight="1100" math="0" shadow="0">
      <root>
        <mxCell id="0" />
        <mxCell id="1" parent="0" />
        <mxCell id="GQ_PC_4hDOSx4sBnk_Ye-3" style="edgeStyle=orthogonalEdgeStyle;rounded=0;orthogonalLoop=1;jettySize=auto;html=1;entryX=0;entryY=0.5;entryDx=0;entryDy=0;noEdgeStyle=1;orthogonal=1;" parent="1" source="GQ_PC_4hDOSx4sBnk_Ye-1" target="GQ_PC_4hDOSx4sBnk_Ye-2" edge="1">
          <mxGeometry relative="1" as="geometry">
            <Array as="points">
              <mxPoint x="92" y="71.66666666666667" />
              <mxPoint x="168" y="40" />
            </Array>
          </mxGeometry>
        </mxCell>
        <mxCell id="GQ_PC_4hDOSx4sBnk_Ye-5" style="edgeStyle=orthogonalEdgeStyle;rounded=0;orthogonalLoop=1;jettySize=auto;html=1;entryX=1;entryY=0.5;entryDx=0;entryDy=0;entryPerimeter=0;noEdgeStyle=1;orthogonal=1;" parent="1" source="GQ_PC_4hDOSx4sBnk_Ye-1" target="GQ_PC_4hDOSx4sBnk_Ye-4" edge="1">
          <mxGeometry relative="1" as="geometry">
            <Array as="points">
              <mxPoint x="94" y="95" />
              <mxPoint x="168" y="132.5" />
            </Array>
          </mxGeometry>
        </mxCell>
        <mxCell id="GQ_PC_4hDOSx4sBnk_Ye-6" style="edgeStyle=orthogonalEdgeStyle;rounded=0;orthogonalLoop=1;jettySize=auto;html=1;noEdgeStyle=1;orthogonal=1;" parent="1" source="GQ_PC_4hDOSx4sBnk_Ye-1" target="GQ_PC_4hDOSx4sBnk_Ye-4" edge="1">
          <mxGeometry relative="1" as="geometry">
            <Array as="points">
              <mxPoint x="94" y="118.33333333333333" />
              <mxPoint x="168" y="167.5" />
            </Array>
          </mxGeometry>
        </mxCell>
        <mxCell id="GQ_PC_4hDOSx4sBnk_Ye-1" value="" style="whiteSpace=wrap;html=1;aspect=fixed;" parent="1" vertex="1">
          <mxGeometry y="55" width="80" height="80" as="geometry" />
        </mxCell>
        <mxCell id="GQ_PC_4hDOSx4sBnk_Ye-2" value="" style="triangle;whiteSpace=wrap;html=1;" parent="1" vertex="1">
          <mxGeometry x="180" width="60" height="80" as="geometry" />
        </mxCell>
        <mxCell id="GQ_PC_4hDOSx4sBnk_Ye-4" value="" style="shape=cylinder3;whiteSpace=wrap;html=1;boundedLbl=1;backgroundOutline=1;size=15;" parent="1" vertex="1">
          <mxGeometry x="160" y="110" width="60" height="80" as="geometry" />
        </mxCell>
      </root>
    </mxGraphModel>
  </diagram>
</mxfile>
